<svg width="17" height="17" viewBox="0 0 17 17" fill="none" xmlns="http://www.w3.org/2000/svg">
<path d="M0.75 9.91667H3.25C3.69203 9.91667 4.11595 10.0923 4.42851 10.4048C4.74107 10.7174 4.91667 11.1413 4.91667 11.5833V14.0833C4.91667 14.5254 4.74107 14.9493 4.42851 15.2618C4.11595 15.5744 3.69203 15.75 3.25 15.75H2.41667C1.97464 15.75 1.55072 15.5744 1.23816 15.2618C0.925595 14.9493 0.75 14.5254 0.75 14.0833V8.25C0.75 6.26088 1.54018 4.35322 2.9467 2.9467C4.35322 1.54018 6.26088 0.75 8.25 0.75C10.2391 0.75 12.1468 1.54018 13.5533 2.9467C14.9598 4.35322 15.75 6.26088 15.75 8.25V14.0833C15.75 14.5254 15.5744 14.9493 15.2618 15.2618C14.9493 15.5744 14.5254 15.75 14.0833 15.75H13.25C12.808 15.75 12.384 15.5744 12.0715 15.2618C11.7589 14.9493 11.5833 14.5254 11.5833 14.0833V11.5833C11.5833 11.1413 11.7589 10.7174 12.0715 10.4048C12.384 10.0923 12.808 9.91667 13.25 9.91667H15.75" stroke="#232323" stroke-width="1.5" stroke-linecap="round" stroke-linejoin="round"/>
</svg>
